<?xml version="1.0" encoding="UTF-8"?>
<!DOCTYPE svg PUBLIC "-//W3C//DTD SVG 1.1//EN" "http://www.w3.org/Graphics/SVG/1.1/DTD/svg11.dtd">
<svg xmlns="http://www.w3.org/2000/svg" version="1.1" width="1024px" height="1024px" style="shape-rendering:geometricPrecision; text-rendering:geometricPrecision; image-rendering:optimizeQuality; fill-rule:evenodd; clip-rule:evenodd" xmlns:xlink="http://www.w3.org/1999/xlink">
<g><path style="opacity:0.998" fill="#246ee9" d="M 472.5,-0.5 C 499.833,-0.5 527.167,-0.5 554.5,-0.5C 669.556,9.2118 769.556,52.7118 854.5,130C 958.43,224.37 1014.76,341.87 1023.5,482.5C 1023.5,501.5 1023.5,520.5 1023.5,539.5C 1016.95,662.887 971.784,769.554 888,859.5C 842.211,908.305 789.378,947.472 729.5,977C 669.99,1004.26 607.657,1019.76 542.5,1023.5C 521.5,1023.5 500.5,1023.5 479.5,1023.5C 335.492,1013.25 216.325,953.912 122,845.5C 48.5437,761.027 7.71038,662.694 -0.5,550.5C -0.5,524.167 -0.5,497.833 -0.5,471.5C 9.71966,339.909 62.7197,229.075 158.5,139C 246.177,55.1293 350.844,8.62932 472.5,-0.5 Z"/></g>
<g><path style="opacity:1" fill="#fcfcfe" d="M 494.5,119.5 C 507.224,117.898 519.224,120.064 530.5,126C 549.738,140.848 554.238,159.348 544,181.5C 541.5,184.667 539,187.833 536.5,191C 530.552,195.222 524.386,199.055 518,202.5C 517.156,206.211 516.156,209.877 515,213.5C 514.097,214.701 512.931,215.535 511.5,216C 507.167,216.667 502.833,216.667 498.5,216C 496.683,214.2 495.516,212.034 495,209.5C 493.359,201.873 494.859,195.039 499.5,189C 504.876,185.761 510.542,183.095 516.5,181C 528.017,172.183 530.517,161.35 524,148.5C 516.668,141.122 507.834,138.622 497.5,141C 495.5,142.333 493.5,143.667 491.5,145C 488.167,149 484.833,153 481.5,157C 469.235,160.401 464.402,155.901 467,143.5C 472.02,130.641 481.187,122.641 494.5,119.5 Z"/></g>
<g><path style="opacity:1" fill="#fefefe" d="M 503.5,226.5 C 511.672,226.582 515.505,230.582 515,238.5C 514.226,240.939 512.726,242.773 510.5,244C 598.77,245.565 673.27,278.065 734,341.5C 801.367,413.539 829.367,498.872 818,597.5C 808.218,675.903 774.051,741.403 715.5,794C 648.823,852.535 570.823,878.869 481.5,873C 396.446,866.223 325.613,831.056 269,767.5C 216.618,708.004 190.452,638.337 190.5,558.5C 191.141,466.688 224.808,389.521 291.5,327C 350.669,272.488 420.669,244.821 501.5,244C 494.375,237.253 495.042,231.42 503.5,226.5 Z"/></g>
<g><path style="opacity:1" fill="#246ee9" d="M 505.5,385.5 C 573.549,419.358 641.216,454.025 708.5,489.5C 641.99,524.255 575.324,558.755 508.5,593C 502.602,591.562 496.936,589.228 491.5,586C 433.198,555.515 374.865,525.015 316.5,494.5C 347.5,475 378.5,455.5 409.5,436C 441.719,419.392 473.719,402.559 505.5,385.5 Z"/></g>
<g><path style="opacity:1" fill="#266ee9" d="M 704.5,518.5 C 705.332,552.664 705.832,586.998 706,621.5C 711.106,630.713 715.939,640.046 720.5,649.5C 712.608,666.284 704.441,682.951 696,699.5C 686.644,684.12 677.81,668.453 669.5,652.5C 673.804,642.56 678.637,632.893 684,623.5C 684.167,592.495 684.667,561.495 685.5,530.5C 692.067,526.725 698.4,522.725 704.5,518.5 Z"/></g>
<g><path style="opacity:1" fill="#256ee9" d="M 381.5,553.5 C 423.899,575.033 466.566,596.033 509.5,616.5C 552.616,596.442 595.616,576.109 638.5,555.5C 639.833,581.167 639.833,606.833 638.5,632.5C 595.343,654.578 552.343,676.912 509.5,699.5C 467.356,676.927 425.023,654.593 382.5,632.5C 381.5,606.175 381.167,579.842 381.5,553.5 Z"/></g>
</svg>
